<svg xmlns="http://www.w3.org/2000/svg" version="1.1" xmlns:xlink="http://www.w3.org/1999/xlink" xmlns:svgjs="http://svgjs.dev/svgjs" width="128" height="128" viewBox="0 0 128 128"><g transform="matrix(0.6058823529411764,0,0,0.6058823529411764,24.97547682843946,12.221578125)"><svg viewBox="0 0 72 96" data-background-color="#ffffff" preserveAspectRatio="xMidYMid meet" height="170" width="128" xmlns="http://www.w3.org/2000/svg" xmlns:xlink="http://www.w3.org/1999/xlink"><g id="tight-bounds" transform="matrix(1,0,0,1,0.23029153670366043,0.25950000000000273)"><svg viewBox="0 0 71.53941692659266 95.481" height="95.481" width="71.53941692659266"><g><svg viewBox="0 0 71.53941692659266 95.481" height="95.481" width="71.53941692659266"><g><svg viewBox="0 0 71.53941692659266 95.481" height="95.481" width="71.53941692659266"><g id="textblocktransform"><svg viewBox="0 0 71.53941692659266 95.481" height="95.481" width="71.53941692659266" id="textblock"><g><svg viewBox="0 0 71.53941692659266 95.481" height="95.481" width="71.53941692659266"><g><svg viewBox="0 0 71.53941692659266 95.481" height="95.481" width="71.53941692659266"><g><svg xmlns="http://www.w3.org/2000/svg" xmlns:xlink="http://www.w3.org/1999/xlink" version="1.1" x="0" y="0" viewBox="16.41665078272756 4.983 67.43276173682031 90" enable-background="new 0 0 100 100" xml:space="preserve" height="95.481" width="71.53941692659266" class="icon-icon-0" data-fill-palette-color="accent" id="icon-0"></svg></g></svg></g></svg></g></svg></g></svg></g><g></g></svg></g><defs></defs><mask id="4712902b-989f-482f-8b89-659a9a6a4e68"><g id="SvgjsG4794"><svg viewBox="0 0 71.53941692659266 95.481" height="95.481" width="71.53941692659266"><g><svg viewBox="0 0 71.53941692659266 95.481" height="95.481" width="71.53941692659266"><g><svg viewBox="0 0 71.53941692659266 95.481" height="95.481" width="71.53941692659266"><g id="SvgjsG4793"><svg viewBox="0 0 71.53941692659266 95.481" height="95.481" width="71.53941692659266" id="SvgjsSvg4792"><g><svg viewBox="0 0 71.53941692659266 95.481" height="95.481" width="71.53941692659266"><g><svg viewBox="0 0 71.53941692659266 95.481" height="95.481" width="71.53941692659266"><g><svg xmlns="http://www.w3.org/2000/svg" xmlns:xlink="http://www.w3.org/1999/xlink" version="1.1" x="0" y="0" viewBox="16.41665078272756 4.983 67.43276173682031 90" enable-background="new 0 0 100 100" xml:space="preserve" height="95.481" width="71.53941692659266" class="icon-icon-0" data-fill-palette-color="accent" id="SvgjsSvg4791"><path d="M82.878 17.067C82.31 15.046 79.884 9.032 75.547 5.511L74.9 4.985 75.421 5.786C76.239 7.02 77.598 9.237 78.664 11.802 79.35 13.571 79.95 15.558 80.189 17.507 80.234 18.008 80.25 18.506 80.231 18.997A28 28 0 0 0 79.534 17.414 16 16 0 0 0 77.565 14.106L77.537 14.068 76.879 13.215 77.313 14.201C77.334 14.251 78.648 17.304 79.001 21.489A24.1 24.1 0 0 1 78.347 28.451C78.325 27.16 78.036 25.451 76.951 23.857L76.575 23.305 76.714 23.958C76.725 24.009 77.737 28.905 75.914 31.878 74.71 27.053 72.89 25.191 71.128 23.388 69.415 21.635 67.797 19.98 66.992 15.634L66.881 15.034 66.736 15.626C66.695 15.792 65.81 19.484 67.179 22.069 65.488 20.961 59.799 17.031 58.649 13.58L58.321 12.596 58.393 13.631C58.783 19.188 62.239 21.732 65.581 24.192 68.261 26.164 70.79 28.026 71.793 31.322 72.184 32.607 72.297 33.852 72.143 35.055A13.4 13.4 0 0 1 69.84 39.896 13.8 13.8 0 0 1 67.406 42.078C68.771 40.673 71.014 37.88 70.538 35.069L70.453 34.571 70.285 35.047C70.266 35.099 68.409 40.2 63.396 42.128 61.089 43.133 60.6 44.752 60.512 45.158 60.125 45.233 58.479 45.479 58.055 44.367 56.078 39.296 58.405 35.917 60.456 32.936 61.629 31.231 62.737 29.621 62.737 27.968 62.737 25.001 59.989 21.625 59.872 21.483L59.099 20.543 59.655 21.626C59.674 21.662 61.511 25.284 61.089 27.251 60.802 28.579 59.943 29.504 58.857 30.674 56.596 33.107 53.505 36.435 53.47 46.151 53.167 46.113 52.545 46.205 51.929 47.333 51.655 47.881 51.157 48.084 50.793 48.232 50.669 48.282 50.562 48.326 50.486 48.377A1.3 1.3 0 0 0 50.132 48.773 1.3 1.3 0 0 0 49.778 48.377C49.702 48.326 49.594 48.283 49.47 48.232 49.107 48.084 48.609 47.881 48.332 47.329 47.718 46.203 47.096 46.113 46.794 46.151 46.759 36.435 43.668 33.107 41.407 30.674 40.32 29.504 39.461 28.579 39.175 27.251 38.752 25.286 40.59 21.663 40.608 21.626L41.163 20.543 40.39 21.482C40.273 21.625 37.525 25 37.525 27.967 37.525 29.62 38.634 31.23 39.807 32.935 41.859 35.916 44.184 39.295 42.207 44.367 41.785 45.476 40.138 45.232 39.75 45.157 39.662 44.75 39.172 43.132 36.861 42.124 31.858 40.2 29.996 35.097 29.978 35.046L29.809 34.57 29.725 35.068C29.249 37.879 31.491 40.672 32.857 42.077A13.8 13.8 0 0 1 30.423 39.895 13.5 13.5 0 0 1 28.12 35.053C27.965 33.85 28.078 32.604 28.469 31.32 29.472 28.025 32.002 26.162 34.681 24.19 38.023 21.73 41.479 19.186 41.869 13.629L41.941 12.594 41.613 13.578C40.463 17.029 34.774 20.959 33.083 22.067 34.452 19.482 33.567 15.789 33.527 15.624L33.381 15.032 33.27 15.632C32.465 19.978 30.848 21.633 29.134 23.386 27.373 25.189 25.552 27.051 24.348 31.876 22.527 28.904 23.537 24.007 23.548 23.956L23.687 23.304 23.312 23.855C22.226 25.45 21.938 27.159 21.916 28.449A24.2 24.2 0 0 1 21.261 21.505C21.613 17.31 22.928 14.249 22.95 14.198L23.384 13.213 22.727 14.066 22.694 14.109A15.8 15.8 0 0 0 20.731 17.41 27 27 0 0 0 20.033 18.994C20.014 18.503 20.031 18.006 20.075 17.506 20.314 15.556 20.915 13.568 21.601 11.798 22.667 9.234 24.025 7.019 24.844 5.784L25.366 4.983 24.719 5.509C20.381 9.031 17.955 15.045 17.388 17.061 14.825 25.218 18.091 28.379 18.564 28.784 18.596 34.305 22.76 38.316 23.114 38.647 25.308 44.272 30.039 46.826 33.625 47.979 37.154 49.113 40.302 49.148 40.866 49.144L41.975 51.853C41.725 52.004 40.8 52.389 38.921 51.328 32.849 47.588 29.262 47.223 27.118 47.005 26.063 46.898 25.365 46.826 24.887 46.416L24.766 46.312 24.687 46.452C24.662 46.496 24.077 47.547 24.145 48.366 24.185 48.837 24.533 49.419 24.901 50.034 25.188 50.512 25.484 51.007 25.661 51.483 25.859 52.076 26.094 52.618 26.356 53.118 26.372 53.187 26.426 53.305 26.573 53.541 27.335 54.959 29.595 58.129 34.693 58.525 35.501 58.651 36.234 58.712 36.826 58.747 36.357 58.892 35.794 58.985 35.794 58.985A5.1 5.1 0 0 0 37.768 58.807L37.783 58.808C37.304 59.17 36.045 59.55 36.045 59.55A6.3 6.3 0 0 0 38.392 59.037C38.952 59.356 39.228 59.729 39.277 59.801L39.281 59.809 39.283 59.808C39.579 60.225 39.811 60.719 40.03 61.187 40.327 61.82 40.586 62.371 40.953 62.613 40.987 63.516 41.622 64.49 42.394 65.595 42.031 69.113 40.661 72.945 39.277 74.306 41.519 72.975 42.252 71.931 42.252 71.931 42.765 77.681 39.39 85.254 39.39 85.254S46.645 86.762 50.133 94.983C53.621 86.761 60.875 85.254 60.875 85.254S57.501 77.681 58.014 71.931C58.014 71.931 58.745 72.975 60.989 74.306 59.605 72.945 58.234 69.114 57.872 65.595 58.644 64.49 59.279 63.516 59.313 62.613 59.681 62.371 59.939 61.82 60.236 61.187 60.457 60.717 60.69 60.22 60.988 59.8L60.989 59.801C61.038 59.731 61.314 59.357 61.876 59.037A6.3 6.3 0 0 0 64.223 59.55S62.963 59.17 62.485 58.808L62.5 58.807A5.1 5.1 0 0 0 64.476 58.985S63.913 58.891 63.443 58.747A23 23 0 0 0 65.578 58.525C70.673 58.126 72.934 54.959 73.696 53.541 73.842 53.308 73.895 53.19 73.912 53.121 74.175 52.621 74.408 52.081 74.606 51.487 74.785 51.007 75.082 50.512 75.368 50.034 75.736 49.419 76.085 48.837 76.124 48.367 76.192 47.548 75.607 46.497 75.583 46.453L75.505 46.313 75.383 46.417C74.904 46.827 74.207 46.898 73.152 47.006 71.008 47.224 67.422 47.589 61.354 51.327 59.471 52.39 58.544 52.006 58.295 51.854L59.404 49.145C59.971 49.149 63.116 49.114 66.644 47.98 70.23 46.828 74.96 44.273 77.155 38.648 77.509 38.317 81.675 34.306 81.705 28.785 82.175 28.381 85.441 25.22 82.878 17.067" fill="white"></path></svg></g></svg></g></svg></g></svg></g></svg></g><g></g></svg></g><defs><mask></mask></defs></svg><rect width="71.53941692659266" height="95.481" fill="black" stroke="none" visibility="hidden"></rect></g></mask><linearGradient x1="0" x2="1" y1="0.5" y2="0.5" id="9c15cbb4-fd75-4bf8-a30d-1d71296d5872"><stop stop-color="#f00b51" offset="0"></stop><stop stop-color="#730062" offset="1"></stop></linearGradient><rect width="71.53941692659266" height="95.481" fill="url(#9c15cbb4-fd75-4bf8-a30d-1d71296d5872)" mask="url(#4712902b-989f-482f-8b89-659a9a6a4e68)" data-fill-palette-color="accent"></rect></svg><rect width="71.53941692659266" height="95.481" fill="none" stroke="none" visibility="hidden"></rect></g></svg></g></svg>